<svg width="25" height="25" viewBox="0 0 25 25" fill="none" xmlns="http://www.w3.org/2000/svg">
<g clip-path="url(#clip0_202_1500)">
<path fill-rule="evenodd" clip-rule="evenodd" d="M9.00918 6.29371C9.28574 6.26481 9.56632 6.25 9.85022 6.25C13.6476 6.25 16.8485 8.89825 17.8289 12.5108C17.9074 12.5057 17.9863 12.5024 18.0657 12.5009C18.0334 12.5004 18.0011 12.5001 17.9687 12.5001L17.9425 12.5001L17.9425 12.5H19.1406H19.1876V12.4996C20.6761 12.4745 21.875 11.2601 21.875 9.76562C21.875 8.25547 20.6508 7.03125 19.1406 7.03125C18.6336 7.03125 18.1587 7.16926 17.7517 7.40977C17.7505 6.97326 17.6842 6.55206 17.562 6.15535C16.9532 4.39177 15.2787 3.125 13.3082 3.125C11.2866 3.125 9.57642 4.4584 9.00918 6.29371ZM21.2318 13.5202C22.5673 14.5124 23.4375 16.1352 23.4375 17.9687C23.4375 20.989 21.0763 23.4375 18.1635 23.4375C18.0983 23.4375 18.0334 23.4362 17.9688 23.4338V23.4375H9.97432V23.4366C9.93302 23.4372 9.89166 23.4375 9.85022 23.4375C5.27304 23.4375 1.5625 19.5899 1.5625 14.8438C1.5625 11.0112 3.98198 7.76461 7.32353 6.65669C7.78665 3.7688 10.2898 1.5625 13.3082 1.5625C15.8979 1.5625 18.1083 3.18659 18.9765 5.47183C19.0309 5.46978 19.0856 5.46875 19.1406 5.46875C21.5137 5.46875 23.4375 7.39253 23.4375 9.76562C23.4375 11.3796 22.5476 12.7858 21.2318 13.5202ZM17.9688 21.875H9.97432H9.8844V21.8749L9.85022 21.875C6.1889 21.875 3.125 18.7809 3.125 14.8438C3.125 10.9066 6.1889 7.8125 9.85022 7.8125C12.9561 7.8125 15.6321 10.0391 16.3725 13.1181L16.3749 13.1171C16.4795 13.5443 16.5461 13.9872 16.571 14.4418C17.0578 14.1978 17.5994 14.0625 18.1635 14.0625C20.1604 14.0625 21.875 15.7575 21.875 17.9687C21.875 20.1645 20.1843 21.8512 18.2054 21.8747V21.875H17.9688Z" fill="white"/>
</g>
<defs>
<clipPath id="clip0_202_1500">
<rect width="25" height="25" fill="white"/>
</clipPath>
</defs>
</svg>
